<svg width="40" height="41" viewBox="0 0 40 41" fill="none" xmlns="http://www.w3.org/2000/svg">
<path d="M0 12.04C0 5.41262 5.37258 0.0400391 12 0.0400391H28C34.6274 0.0400391 40 5.41262 40 12.04V28.04C40 34.6675 34.6274 40.04 28 40.04H12C5.37258 40.04 0 34.6675 0 28.04V12.04Z" fill="#2C47BF"/>
<path d="M12 16.04C12 14.9792 12.4214 13.9618 13.1716 13.2116C13.9217 12.4615 14.9391 12.04 16 12.04H24C25.0609 12.04 26.0783 12.4615 26.8284 13.2116C27.5786 13.9618 28 14.9792 28 16.04V24.04C28 25.1009 27.5786 26.1183 26.8284 26.8685C26.0783 27.6186 25.0609 28.04 24 28.04H16C14.9391 28.04 13.9217 27.6186 13.1716 26.8685C12.4214 26.1183 12 25.1009 12 24.04V16.04Z" stroke="#FCFCFF" stroke-width="2" stroke-linecap="round" stroke-linejoin="round"/>
<path d="M24.5 15.54V15.55M17 20.04C17 20.8357 17.3161 21.5988 17.8787 22.1614C18.4413 22.724 19.2044 23.04 20 23.04C20.7956 23.04 21.5587 22.724 22.1213 22.1614C22.6839 21.5988 23 20.8357 23 20.04C23 19.2444 22.6839 18.4813 22.1213 17.9187C21.5587 17.3561 20.7956 17.04 20 17.04C19.2044 17.04 18.4413 17.3561 17.8787 17.9187C17.3161 18.4813 17 19.2444 17 20.04Z" stroke="#FCFCFF" stroke-width="2" stroke-linecap="round" stroke-linejoin="round"/>
</svg>
