<svg width="40" height="41" viewBox="0 0 40 41" fill="none" xmlns="http://www.w3.org/2000/svg">
<path d="M0 12.04C0 5.41262 5.37258 0.0400391 12 0.0400391H28C34.6274 0.0400391 40 5.41262 40 12.04V28.04C40 34.6675 34.6274 40.04 28 40.04H12C5.37258 40.04 0 34.6675 0 28.04V12.04Z" fill="#2C47BF"/>
<path d="M29 15.957V19.991C27.1861 19.8111 25.4564 19.1362 24 18.04V22.54C23.9997 23.7612 23.6555 24.9575 23.0067 25.992C22.3579 27.0266 21.4308 27.8574 20.3317 28.3894C19.2325 28.9214 18.0057 29.1329 16.7919 28.9999C15.578 28.8669 14.4262 28.3946 13.4683 27.6372C12.5105 26.8797 11.7853 25.8678 11.376 24.7173C10.9667 23.5669 10.8898 22.3243 11.154 21.1321C11.4182 19.9399 12.0129 18.8463 12.87 17.9765C13.7271 17.1066 14.8118 16.4958 16 16.214V20.54C15.6591 20.7957 15.3892 21.1343 15.2159 21.5236C15.0427 21.913 14.9718 22.3401 15.0101 22.7646C15.0484 23.189 15.1945 23.5966 15.4346 23.9486C15.6747 24.3007 16.0008 24.5855 16.382 24.7761C16.7631 24.9667 17.1867 25.0567 17.6124 25.0375C18.0381 25.0184 18.4518 24.8907 18.8143 24.6667C19.1768 24.4426 19.476 24.1297 19.6836 23.7575C19.8911 23.3853 20 22.9662 20 22.54V11.04H24.083C24.2912 12.2684 24.8764 13.4017 25.7574 14.2827C26.6384 15.1637 27.7716 15.7488 29 15.957Z" stroke="#FCFCFF" stroke-width="2" stroke-linecap="round" stroke-linejoin="round"/>
</svg>
