<svg width="40" height="41" viewBox="0 0 40 41" fill="none" xmlns="http://www.w3.org/2000/svg">
<path d="M0 12.04C0 5.41262 5.37258 0.0400391 12 0.0400391H28C34.6274 0.0400391 40 5.41262 40 12.04V28.04C40 34.6675 34.6274 40.04 28 40.04H12C5.37258 40.04 0 34.6675 0 28.04V12.04Z" fill="#2C47BF"/>
<path d="M10 16.04C10 14.9792 10.4214 13.9618 11.1716 13.2116C11.9217 12.4615 12.9391 12.04 14 12.04H26C27.0609 12.04 28.0783 12.4615 28.8284 13.2116C29.5786 13.9618 30 14.9792 30 16.04V24.04C30 25.1009 29.5786 26.1183 28.8284 26.8685C28.0783 27.6186 27.0609 28.04 26 28.04H14C12.9391 28.04 11.9217 27.6186 11.1716 26.8685C10.4214 26.1183 10 25.1009 10 24.04V16.04Z" stroke="#FCFCFF" stroke-width="2" stroke-linecap="round" stroke-linejoin="round"/>
<path d="M18 17.04L23 20.04L18 23.04V17.04Z" stroke="#FCFCFF" stroke-width="2" stroke-linecap="round" stroke-linejoin="round"/>
</svg>
