<svg width="48" height="48" viewBox="0 0 48 48" fill="none" xmlns="http://www.w3.org/2000/svg">
<path d="M0 0H48V37.1321L38.9078 48H0V0Z" fill="#D4FEF6"/>
<path d="M16.9091 37H13.3636C12.7136 37 12.1574 36.7688 11.6949 36.3063C11.2324 35.8438 11.0008 35.2872 11 34.6364V31.0909H13.3636V34.6364H16.9091V37ZM31.0909 37V34.6364H34.6364V31.0909H37V34.6364C37 35.2864 36.7688 35.843 36.3063 36.3063C35.8438 36.7695 35.2872 37.0008 34.6364 37H31.0909ZM24 31.6818C21.6364 31.6818 19.4945 30.9826 17.5745 29.5841C15.6544 28.1856 14.2508 26.3242 13.3636 24C14.25 21.6758 15.6536 19.8144 17.5745 18.4159C19.4953 17.0174 21.6372 16.3182 24 16.3182C26.3628 16.3182 28.5051 17.0174 30.4267 18.4159C32.3484 19.8144 33.7516 21.6758 34.6364 24C33.75 26.3242 32.3468 28.1856 30.4267 29.5841C28.5067 30.9826 26.3644 31.6818 24 31.6818ZM24 28.1364C25.1424 28.1364 26.1174 27.7326 26.925 26.925C27.7326 26.1174 28.1364 25.1424 28.1364 24C28.1364 22.8576 27.7326 21.8826 26.925 21.075C26.1174 20.2674 25.1424 19.8636 24 19.8636C22.8576 19.8636 21.8826 20.2674 21.075 21.075C20.2674 21.8826 19.8636 22.8576 19.8636 24C19.8636 25.1424 20.2674 26.1174 21.075 26.925C21.8826 27.7326 22.8576 28.1364 24 28.1364ZM24 25.7727C23.5076 25.7727 23.0892 25.6006 22.7449 25.2563C22.4006 24.912 22.2281 24.4932 22.2273 24C22.2265 23.5068 22.399 23.0884 22.7449 22.7449C23.0908 22.4014 23.5092 22.2288 24 22.2273C24.4908 22.2257 24.9096 22.3982 25.2563 22.7449C25.6029 23.0916 25.7751 23.5099 25.7727 24C25.7704 24.4901 25.5982 24.9088 25.2563 25.2563C24.9143 25.6037 24.4956 25.7759 24 25.7727ZM11 16.9091V13.3636C11 12.7136 11.2316 12.1574 11.6949 11.6949C12.1582 11.2324 12.7144 11.0008 13.3636 11H16.9091V13.3636H13.3636V16.9091H11ZM34.6364 16.9091V13.3636H31.0909V11H34.6364C35.2864 11 35.843 11.2316 36.3063 11.6949C36.7695 12.1582 37.0008 12.7144 37 13.3636V16.9091H34.6364Z" fill="#0C6958"/>
</svg>
