<svg width="48" height="48" viewBox="0 0 48 48" fill="none" xmlns="http://www.w3.org/2000/svg">
<path d="M0 0H48V37.1321L38.9078 48H0V0Z" fill="#E0E2FF"/>
<path d="M13.128 25.8176C15.1721 25.8176 17.2162 25.8176 19.3319 25.8176C19.4933 27.2973 20.0133 28.7022 21.3043 29.4514C22.1291 29.9197 23.1511 30.2381 24.0835 30.2381C26.2351 30.2569 27.6516 28.6085 28.2075 25.7988C30.2515 25.7988 32.2956 25.7988 34.4831 25.7988C34.4831 26.3608 34.5548 26.9227 34.4472 27.4285C34.3935 27.7094 34.0528 28.0091 33.7659 28.1402C33.4611 28.2901 33.0666 28.2339 32.708 28.3088C31.5605 28.4961 31.1301 29.62 31.8473 30.5753C32.0446 30.8375 32.3673 31.0998 32.4211 31.3995C32.5108 31.7928 32.5466 32.3548 32.3315 32.617C31.7577 33.3663 31.0405 34.0031 30.395 34.6962C29.9647 35.1457 29.5164 35.1645 29.0502 34.7524C28.853 34.5651 28.584 34.434 28.4226 34.2279C27.9385 33.6098 27.4365 33.8346 26.8448 34.0593C26.2531 34.2841 26.2351 34.7149 26.1813 35.2207C26.02 36.9814 26.002 37.0001 24.2807 37.0001C24.1014 37.0001 23.9221 37.0001 23.7428 37.0001C21.645 37.0001 21.645 37.0001 21.2864 34.846C21.1608 34.0781 19.9416 33.5349 19.3678 34.0219C17.4851 35.6702 17.6644 35.2207 16.1583 33.7034C16.1224 33.666 16.0686 33.6098 16.0328 33.5723C14.7956 32.2049 14.2397 32.3548 15.7817 30.4255C16.3555 29.7137 15.8535 28.5149 14.9749 28.3463C14.8852 28.3276 14.7956 28.3088 14.7059 28.2901C12.8949 27.9904 12.8412 27.9155 13.128 25.8176Z" fill="#2B3099"/>
<path d="M19.0293 24.5993C19.0293 22.7074 18.9217 20.853 19.0831 19.0361C19.1548 18.2306 19.621 17.3877 20.1051 16.7321C20.5713 16.0953 21.1988 15.7394 22.0595 16.5074C23.0995 17.4627 24.5698 17.3503 25.6814 16.3762C26.1656 15.9642 26.4883 16.0016 26.9366 16.3013C27.9227 16.9569 28.4606 17.8935 28.4965 19.0923C28.5503 20.8905 28.5144 22.7074 28.5144 24.5993C25.3766 24.5993 22.2567 24.5993 19.0293 24.5993Z" fill="#2B3099"/>
<path d="M34.4483 23.7392C32.5477 23.7392 30.7726 23.7392 28.9616 23.7392C28.621 21.5851 29.3382 19.3373 28.2803 17.0146C28.6568 17.0896 28.9616 17.0521 29.1589 17.1832C30.4498 18.0261 31.185 18.0261 32.3863 17.2207C32.6015 17.0708 33.0856 17.0334 33.2111 17.1645C33.6773 17.689 34.3407 18.2884 34.4125 18.9065C34.5738 20.4799 34.4483 22.0721 34.4483 23.7392Z" fill="#2B3099"/>
<path d="M13.0945 23.7186C13.0945 22.1077 13.0048 20.553 13.1304 19.0171C13.1841 18.4177 13.7041 17.837 14.1165 17.3313C14.4572 16.9004 14.8517 16.8817 15.3358 17.2938C16.2323 18.0431 17.2723 17.9869 18.2405 17.3125C18.4915 17.144 18.7784 17.0503 19.1191 17.0316C18.2405 19.2419 18.9039 21.4896 18.6171 23.6999C16.8061 23.7186 14.9951 23.7186 13.0945 23.7186Z" fill="#2B3099"/>
<path d="M26.5214 13.8854C26.5214 15.4401 25.2663 16.7325 23.7781 16.7325C22.2898 16.7513 21.0347 15.4401 21.0168 13.8854C20.9989 12.3307 22.3078 10.9633 23.8139 11.0008C25.3021 11.0382 26.5393 12.3494 26.5214 13.8854Z" fill="#2B3099"/>
<path d="M30.8073 13.0237C32.0265 13.0424 32.9589 14.0539 32.923 15.3089C32.9051 16.5639 31.901 17.5754 30.7176 17.538C29.5163 17.5005 28.5839 16.4703 28.6018 15.2153C28.6377 13.9603 29.588 13.005 30.8073 13.0237Z" fill="#2B3099"/>
<path d="M18.9367 15.2527C18.9367 16.5077 17.9685 17.5379 16.7851 17.5379C15.6016 17.5379 14.6334 16.5265 14.6155 15.2715C14.5975 14.0165 15.5658 13.0237 16.7671 13.0237C17.9864 13.005 18.9188 13.979 18.9367 15.2527Z" fill="#2B3099"/>
</svg>
