<svg width="48" height="48" viewBox="0 0 48 48" fill="none" xmlns="http://www.w3.org/2000/svg">
<path d="M0 0H48V37.1321L38.9078 48H0V0Z" fill="#FBE0FF"/>
<path d="M32.0003 12C33.4148 12 34.7714 12.5619 35.7716 13.5621C36.7718 14.5623 37.3337 15.9188 37.3337 17.3333V28C37.3337 29.4145 36.7718 30.771 35.7716 31.7712C34.7714 32.7714 33.4148 33.3333 32.0003 33.3333H25.7017L19.3523 37.1427C19.1611 37.2574 18.9442 37.3224 18.7214 37.3316C18.4985 37.3408 18.277 37.294 18.0769 37.1954C17.8769 37.0969 17.7048 36.9497 17.5763 36.7674C17.4479 36.5851 17.3672 36.3735 17.3417 36.152L17.3337 36V33.3333H16.0003C14.632 33.3333 13.316 32.8074 12.3246 31.8644C11.3331 30.9213 10.7421 29.6333 10.6737 28.2667L10.667 28V17.3333C10.667 15.9188 11.2289 14.5623 12.2291 13.5621C13.2293 12.5619 14.5858 12 16.0003 12H32.0003ZM26.667 24H18.667C18.3134 24 17.9742 24.1405 17.7242 24.3905C17.4741 24.6406 17.3337 24.9797 17.3337 25.3333C17.3337 25.687 17.4741 26.0261 17.7242 26.2761C17.9742 26.5262 18.3134 26.6667 18.667 26.6667H26.667C27.0206 26.6667 27.3598 26.5262 27.6098 26.2761C27.8598 26.0261 28.0003 25.687 28.0003 25.3333C28.0003 24.9797 27.8598 24.6406 27.6098 24.3905C27.3598 24.1405 27.0206 24 26.667 24ZM29.3337 18.6667H18.667C18.3134 18.6667 17.9742 18.8071 17.7242 19.0572C17.4741 19.3072 17.3337 19.6464 17.3337 20C17.3337 20.3536 17.4741 20.6928 17.7242 20.9428C17.9742 21.1929 18.3134 21.3333 18.667 21.3333H29.3337C29.6873 21.3333 30.0264 21.1929 30.2765 20.9428C30.5265 20.6928 30.667 20.3536 30.667 20C30.667 19.6464 30.5265 19.3072 30.2765 19.0572C30.0264 18.8071 29.6873 18.6667 29.3337 18.6667Z" fill="#AD1997"/>
</svg>
