<svg width="48" height="48" viewBox="0 0 48 48" fill="none" xmlns="http://www.w3.org/2000/svg">
<path d="M0 0H48V37.1321L38.9078 48H0V0Z" fill="#DDFFE0"/>
<g clip-path="url(#clip0_2034_323)">
<path d="M23.9285 31.0701C25.0842 28.7133 26.2152 26.4693 27.2971 24.2003C27.543 23.6863 27.8258 23.4732 28.3667 23.5484C28.8339 23.6111 29.3134 23.586 29.7683 23.6738C31.0591 23.937 31.9812 25.2282 31.7476 26.5445C31.2804 29.2273 30.7641 31.91 30.2477 34.5928C30.0018 35.8213 28.9323 37.0749 27.248 36.9997C24.9981 36.8994 22.736 36.9746 20.4862 36.9746C18.974 36.9621 17.9044 36.1598 17.5847 34.6304C17.0192 31.8724 16.5028 29.1144 16.0111 26.344C15.8267 25.2909 16.8963 23.9245 18.015 23.6863C19.8346 23.2851 20.105 23.4105 20.9287 25.0903C21.8385 26.9457 22.7606 28.8136 23.6826 30.6689C23.7441 30.7692 23.8056 30.8695 23.9285 31.0701Z" fill="#207127"/>
<path d="M19.1435 18.1698C18.9099 15.6626 21.1843 13.1052 23.9259 13.0801C26.4216 13.0676 28.8682 15.3993 28.7329 18.2952C28.61 21.0406 26.5937 23.2595 23.9505 23.2971C21.3318 23.3347 18.9345 20.8776 19.1435 18.1698Z" fill="#207127"/>
<path d="M18.1989 19.8622C18.4448 20.489 18.5186 21.1159 19.33 21.2412C19.8095 21.3164 20.0431 21.8931 19.8832 22.3444C19.7726 22.6829 19.4161 23.0464 19.0841 23.1593C18.6047 23.3222 18.1498 23.059 17.9531 22.545C17.6457 21.7552 17.3752 20.9529 17.0802 20.1506C17.0556 20.0879 17.0556 20.0252 17.0187 19.9751C16.0106 18.8468 16.6499 17.4678 16.5146 16.2142C16.5023 16.0512 16.7114 15.8256 16.8589 15.6752C17.1294 15.3618 17.4982 15.1236 17.7072 14.7726C19.0349 12.5035 20.9405 11.1496 23.5715 11.0117C26.4606 10.8613 28.6121 12.165 30.112 14.6472C30.3579 15.0484 30.5177 15.4871 31.0341 15.6752C31.2062 15.7378 31.3537 16.1014 31.366 16.3396C31.4029 17.2422 31.4029 18.1323 31.3783 19.0349C31.366 19.6366 30.9234 19.9249 30.1981 19.8873C29.4481 19.8372 29.2637 19.599 29.2514 18.9095C29.2391 18.1197 29.1531 17.3425 29.0916 16.5527C29.0793 16.4148 29.0055 16.2142 29.067 16.1265C29.485 15.5749 29.1039 15.1863 28.8334 14.7976C26.3131 11.0744 20.916 11.3502 18.7522 15.3116C18.6907 15.4244 18.5801 15.5874 18.6169 15.6376C19.1333 16.3647 18.5801 17.0917 18.6169 17.8063C18.6292 18.1197 18.5801 18.4457 18.6538 18.7465C18.7399 19.2104 18.6661 19.599 18.1989 19.8622Z" fill="#207127"/>
<path d="M23.9283 29.7034C23.3381 28.525 22.8095 27.4469 22.2686 26.3688C22.8095 25.6542 23.3504 24.9522 23.9283 24.1875C24.4446 24.8895 24.9364 25.5163 25.4036 26.1808C25.4773 26.2936 25.4773 26.5443 25.4159 26.6822C24.9487 27.6475 24.4692 28.6128 23.9283 29.7034Z" fill="#207127"/>
</g>
<defs>
<clipPath id="clip0_2034_323">
<rect width="15.7857" height="26" fill="white" transform="translate(16.002 11)"/>
</clipPath>
</defs>
</svg>
