<svg width="48" height="48" viewBox="0 0 48 48" fill="none" xmlns="http://www.w3.org/2000/svg">
<path d="M0 0H48V37.1321L38.9078 48H0V0Z" fill="#FFDEDE"/>
<path d="M23.9916 30.7185C22.6244 30.7185 21.2572 30.7185 19.8899 30.722C19.784 30.722 19.7293 30.6943 19.6815 30.5942C19.0628 29.2954 18.4373 27.9966 17.8118 26.7013C17.6682 26.4042 17.6717 26.1141 17.8255 25.8101C18.5979 24.2661 19.3602 22.7152 20.1292 21.1712C20.9632 19.489 21.8006 17.8103 22.638 16.1316C22.8602 15.686 23.0824 15.2369 23.3148 14.7948C23.3456 14.7361 23.4276 14.7084 23.4857 14.667C23.5199 14.7326 23.5814 14.7948 23.5814 14.8604C23.5985 16.0867 23.6087 17.3094 23.619 18.5357C23.6292 19.641 23.6395 20.7429 23.6532 21.8482C23.6634 22.8085 23.6737 23.7687 23.6874 24.729C23.6908 24.843 23.6634 24.9051 23.5438 24.9535C22.908 25.2057 22.6038 25.9794 22.891 26.5839C23.1986 27.2298 23.93 27.4889 24.5453 27.1642C25.1605 26.8429 25.3861 26.0657 25.0341 25.4613C24.9042 25.2367 24.7162 25.0675 24.4803 24.9673C24.3641 24.919 24.3368 24.8533 24.3368 24.7359C24.3402 21.4959 24.3402 18.2559 24.3402 15.0159C24.3402 14.9641 24.3265 14.9088 24.3436 14.8604C24.3641 14.7948 24.4051 14.7395 24.4393 14.6808C24.5008 14.7188 24.5897 14.7395 24.6205 14.7948C24.7709 15.0711 24.911 15.3544 25.0511 15.6376C26.0219 17.5719 26.9926 19.5028 27.9633 21.4372C28.7118 22.9224 29.457 24.4112 30.2089 25.893C30.373 26.2143 30.373 26.5286 30.2089 26.8498C29.6244 27.9863 29.04 29.1261 28.4555 30.2626C28.4418 30.2867 28.4213 30.3109 28.4145 30.3385C28.3324 30.6667 28.1239 30.7323 27.7992 30.7289C26.5346 30.7047 25.2631 30.7185 23.9916 30.7185Z" fill="#E80000"/>
<path d="M27.6576 10.7946C28.0233 11.0295 28.3685 11.2264 28.6898 11.4578C30.4535 12.7428 31.5302 14.4664 31.9233 16.6287C31.9267 16.646 31.9301 16.6633 31.9301 16.6805C31.9199 16.9154 32.0497 17.0363 32.2446 17.1468C32.7094 17.399 32.9624 17.9517 32.8701 18.5147C32.7744 19.0881 32.436 19.4715 31.8754 19.62C31.3422 19.7617 30.8739 19.6097 30.5185 19.1883C29.9067 18.4594 30.1698 17.3921 31.0414 17.0294C31.1337 16.9914 31.1474 16.95 31.1337 16.8636C30.9115 15.5338 30.3749 14.3524 29.5033 13.3265C28.4437 12.0796 27.1107 11.292 25.5213 10.9466C25.494 10.9397 25.4667 10.9328 25.4393 10.9293C25.371 10.919 25.306 10.9121 25.2103 10.8983C25.2103 11.0122 25.2103 11.1193 25.2103 11.2264C25.2103 11.3335 25.2103 11.444 25.2103 11.5649C24.4173 11.5649 23.6346 11.5649 22.8348 11.5649C22.8348 11.3508 22.8348 11.147 22.8348 10.9017C22.5374 10.9777 22.264 11.033 21.994 11.1159C20.8523 11.4717 19.8543 12.0761 19.0169 12.9362C17.9368 14.0416 17.2737 15.3645 17.0276 16.9016C17.0071 17.0329 17.0823 17.0605 17.1575 17.1054C17.6326 17.3783 17.8582 17.7962 17.8548 18.342C17.8513 18.9879 17.3489 19.5544 16.7063 19.6442C16.0432 19.7409 15.4246 19.3541 15.2263 18.7219C14.9939 17.9828 15.3664 17.2505 16.0911 16.9914C16.1423 16.9741 16.2004 16.8947 16.2073 16.8394C16.3372 15.9379 16.614 15.0847 17.031 14.2764C17.3557 13.6443 17.7591 13.0709 18.2376 12.5494C18.8836 11.8482 19.6219 11.2713 20.4729 10.8464C20.4832 10.843 20.4866 10.8292 20.5071 10.805C20.449 10.8015 20.4046 10.7912 20.3567 10.7912C19.5022 10.7912 18.6477 10.7912 17.7932 10.7877C17.6839 10.7877 17.6292 10.8154 17.5779 10.9259C17.3181 11.4924 16.7576 11.7963 16.156 11.7169C15.5886 11.6409 15.1374 11.1988 15.0212 10.6047C14.8982 9.98291 15.2776 9.30589 15.8621 9.09519C16.5081 8.86376 17.2156 9.1021 17.5095 9.68585C17.6121 9.8931 17.7351 9.94146 17.9505 9.94146C19.5057 9.9311 21.0608 9.938 22.616 9.938C22.6776 9.938 22.7391 9.938 22.8211 9.938C22.8211 9.6824 22.8211 9.43715 22.8211 9.17809C23.6209 9.17809 24.4037 9.17809 25.2035 9.17809C25.2035 9.42679 25.2035 9.66858 25.2035 9.92764C25.2752 9.9311 25.3299 9.938 25.3846 9.938C26.9911 9.938 28.5976 9.938 30.204 9.94146C30.3373 9.94146 30.4057 9.91037 30.4706 9.77566C30.7612 9.19536 31.3661 8.90175 31.9575 9.02956C32.5659 9.16427 33.017 9.68585 33.0307 10.3352C33.041 10.8534 32.8188 11.2782 32.3642 11.5407C31.8652 11.8309 31.3525 11.8171 30.891 11.4647C30.703 11.3231 30.5868 11.0882 30.433 10.9017C30.3954 10.8568 30.3373 10.7981 30.2895 10.7981C29.4281 10.7946 28.56 10.7946 27.6576 10.7946Z" fill="#E80000"/>
<path d="M23.9777 34.459C25.1159 34.459 26.2575 34.459 27.3957 34.459C27.8879 34.459 28.2605 34.8389 28.2605 35.3294C28.2605 36.1826 28.2605 37.0323 28.2605 37.8855C28.2605 38.3691 27.8879 38.756 27.4094 38.756C25.1262 38.7594 22.8395 38.756 20.5563 38.756C20.0914 38.756 19.712 38.3691 19.7086 37.8993C19.7052 37.0462 19.7052 36.1964 19.7086 35.3433C19.712 34.8217 20.0778 34.459 20.5939 34.459C21.7252 34.459 22.8498 34.459 23.9777 34.459Z" fill="#E80000"/>
<path d="M23.9752 31.2646C25.2809 31.2646 26.5831 31.2646 27.8888 31.2646C28.6202 31.2646 29.2047 31.8588 29.1979 32.591C29.1911 33.3199 28.61 33.9002 27.8854 33.9002C25.2706 33.9002 22.6558 33.9002 20.041 33.9002C19.3164 33.9002 18.7354 33.3164 18.7354 32.591C18.7319 31.8553 19.313 31.2681 20.0445 31.2681C21.3536 31.2646 22.6627 31.2646 23.9752 31.2646Z" fill="#E80000"/>
</svg>
