<svg width="48" height="48" viewBox="0 0 48 48" fill="none" xmlns="http://www.w3.org/2000/svg">
<path d="M0 0H48V37.1321L38.9078 48H0V0Z" fill="#FFEBE0"/>
<path d="M13.3332 22.667C13.673 22.6674 13.9999 22.7975 14.247 23.0308C14.4941 23.2641 14.6428 23.5829 14.6627 23.9222C14.6826 24.2614 14.5723 24.5955 14.3541 24.8561C14.136 25.1167 13.8266 25.2842 13.4892 25.3243L13.3332 25.3337H11.9998C11.66 25.3333 11.3331 25.2032 11.086 24.9699C10.8389 24.7366 10.6902 24.4177 10.6703 24.0785C10.6503 23.7392 10.7607 23.4052 10.9788 23.1445C11.197 22.8839 11.5064 22.7165 11.8438 22.6763L11.9998 22.667H13.3332ZM23.9998 10.667C24.3264 10.667 24.6416 10.7869 24.8857 11.0039C25.1297 11.221 25.2856 11.52 25.3238 11.8443L25.3332 12.0003V13.3337C25.3328 13.6735 25.2027 14.0004 24.9694 14.2475C24.7361 14.4946 24.4172 14.6433 24.078 14.6632C23.7387 14.6831 23.4047 14.5728 23.144 14.3546C22.8834 14.1365 22.716 13.8271 22.6758 13.4897L22.6665 13.3337V12.0003C22.6665 11.6467 22.807 11.3076 23.057 11.0575C23.3071 10.8075 23.6462 10.667 23.9998 10.667ZM35.9998 22.667C36.3397 22.6674 36.6665 22.7975 36.9136 23.0308C37.1608 23.2641 37.3095 23.5829 37.3294 23.9222C37.3493 24.2614 37.2389 24.5955 37.0208 24.8561C36.8027 25.1167 36.4933 25.2842 36.1558 25.3243L35.9998 25.3337H34.6665C34.3267 25.3333 33.9998 25.2032 33.7527 24.9699C33.5056 24.7366 33.3568 24.4177 33.3369 24.0785C33.317 23.7392 33.4274 23.4052 33.6455 23.1445C33.8636 22.8839 34.173 22.7165 34.5105 22.6763L34.6665 22.667H35.9998ZM14.5238 14.5243C14.7534 14.2948 15.0589 14.1568 15.3829 14.1365C15.707 14.1161 16.0273 14.2147 16.2838 14.4137L16.4092 14.5243L17.3425 15.4577C17.5816 15.6976 17.7205 16.0196 17.7308 16.3582C17.7411 16.6968 17.6222 17.0266 17.3982 17.2807C17.1741 17.5348 16.8618 17.6941 16.5245 17.7262C16.1873 17.7583 15.8505 17.6609 15.5825 17.4537L15.4572 17.343L14.5238 16.4097C14.2739 16.1596 14.1334 15.8205 14.1334 15.467C14.1334 15.1134 14.2739 14.7744 14.5238 14.5243ZM31.5905 14.5243C31.8304 14.2852 32.1524 14.1464 32.491 14.136C32.8296 14.1257 33.1594 14.2446 33.4135 14.4687C33.6676 14.6927 33.8269 15.0051 33.859 15.3423C33.8911 15.6795 33.7937 16.0163 33.5865 16.2843L33.4758 16.4097L32.5425 17.343C32.3025 17.5821 31.9806 17.721 31.642 17.7313C31.3034 17.7416 30.9735 17.6227 30.7195 17.3987C30.4654 17.1746 30.3061 16.8623 30.274 16.525C30.2418 16.1878 30.3393 15.851 30.5465 15.583L30.6572 15.4577L31.5905 14.5243ZM26.6665 32.0003C27.0201 32.0003 27.3593 32.1408 27.6093 32.3909C27.8593 32.6409 27.9998 32.98 27.9998 33.3337C27.9998 34.3945 27.5784 35.4119 26.8283 36.1621C26.0781 36.9122 25.0607 37.3337 23.9998 37.3337C22.939 37.3337 21.9215 36.9122 21.1714 36.1621C20.4213 35.4119 19.9998 34.3945 19.9998 33.3337C19.9999 33.0071 20.1198 32.6919 20.3368 32.4478C20.5538 32.2038 20.8528 32.0479 21.1772 32.0097L21.3332 32.0003H26.6665ZM23.9998 16.0003C25.6789 16.0003 27.3154 16.5286 28.6775 17.5104C30.0396 18.4922 31.0583 19.8776 31.5893 21.4705C32.1203 23.0634 32.1366 24.783 31.6359 26.3857C31.1353 27.9884 30.1431 29.3929 28.7998 30.4003C28.6161 30.5384 28.3997 30.6265 28.1718 30.6563L27.9998 30.667H19.9998C19.7113 30.667 19.4306 30.5734 19.1998 30.4003C17.8566 29.3929 16.8644 27.9884 16.3637 26.3857C15.8631 24.783 15.8794 23.0634 16.4104 21.4705C16.9413 19.8776 17.96 18.4922 19.3221 17.5104C20.6843 16.5286 22.3208 16.0003 23.9998 16.0003Z" fill="#FF9900"/>
</svg>
