<svg width="38" height="38" viewBox="0 0 38 38" fill="none" xmlns="http://www.w3.org/2000/svg">
<path d="M12.7778 33.0001H25.2222M19 26.7779V33.0001M19 26.7779C21.0628 26.7779 23.0411 25.9584 24.4997 24.4998C25.9583 23.0412 26.7778 21.0629 26.7778 19.0001V6.55566H11.2222V19.0001C11.2222 21.0629 12.0417 23.0412 13.5003 24.4998C14.9589 25.9584 16.9372 26.7779 19 26.7779ZM5 14.3334C5 15.1586 5.32778 15.9499 5.91122 16.5333C6.49467 17.1168 7.28599 17.4446 8.11111 17.4446C8.93623 17.4446 9.72755 17.1168 10.311 16.5333C10.8944 15.9499 11.2222 15.1586 11.2222 14.3334C11.2222 13.5083 10.8944 12.717 10.311 12.1336C9.72755 11.5501 8.93623 11.2223 8.11111 11.2223C7.28599 11.2223 6.49467 11.5501 5.91122 12.1336C5.32778 12.717 5 13.5083 5 14.3334ZM26.7778 14.3334C26.7778 15.1586 27.1056 15.9499 27.689 16.5333C28.2725 17.1168 29.0638 17.4446 29.8889 17.4446C30.714 17.4446 31.5053 17.1168 32.0888 16.5333C32.6722 15.9499 33 15.1586 33 14.3334C33 13.5083 32.6722 12.717 32.0888 12.1336C31.5053 11.5501 30.714 11.2223 29.8889 11.2223C29.0638 11.2223 28.2725 11.5501 27.689 12.1336C27.1056 12.717 26.7778 13.5083 26.7778 14.3334Z" stroke="#FCFCFF" stroke-width="2.66667" stroke-linecap="round" stroke-linejoin="round"/>
</svg>
