<svg width="38" height="38" viewBox="0 0 38 38" fill="none" xmlns="http://www.w3.org/2000/svg">
<path d="M33.4099 14.6351C33.309 13.9284 33.1071 13.1208 32.8042 12.515L30.8861 7.77021C30.8861 7.77021 30.8861 7.66925 30.7851 7.66925V7.5683C30.4823 6.86162 30.2803 6.2559 29.9775 5.85208C29.5737 5.24636 29.1699 4.84255 28.6651 4.43873C28.1603 4.13587 27.5546 3.93396 26.8479 3.83301C26.2422 3.83301 25.5355 3.83301 24.8288 3.83301H12.5125C11.7048 3.83301 11.0991 3.83301 10.4934 3.93396C9.78673 3.93396 9.181 4.13587 8.67624 4.43873C8.17147 4.74159 7.76765 5.24636 7.36384 5.85208C7.06097 6.35685 6.75811 6.86162 6.3543 7.66925L4.43618 12.515C4.23427 13.1208 3.93141 13.9284 3.83045 14.6351C3.7295 15.6446 3.93141 16.5532 4.53713 17.3608C4.94095 17.8656 5.44571 18.2694 6.05144 18.5723C7.46479 19.2789 9.38291 19.077 10.5944 18.0675C10.8972 18.3704 11.2001 18.5723 11.6039 18.6732C13.0172 19.2789 14.7335 18.9761 15.9449 17.9665C16.2478 18.2694 16.5506 18.4713 16.9544 18.5723C18.3678 19.178 20.084 18.9761 21.2955 17.9665C21.5983 18.2694 21.9012 18.4713 22.305 18.5723C23.7183 19.178 25.4346 18.9761 26.646 17.9665C26.9489 18.2694 27.2517 18.4713 27.6556 18.5723C28.1603 18.7742 28.766 18.8751 29.3718 18.8751C30.6842 18.8751 31.8956 18.2694 32.7032 17.2599C33.309 16.6541 33.5109 15.7456 33.4099 14.6351ZM9.48387 13.7265C9.181 14.0293 9.08005 14.4332 9.08005 14.837C9.08005 15.0389 8.9791 15.3417 8.87814 15.5436C8.77719 15.7456 8.57528 15.8465 8.27242 15.9475C7.96956 16.0484 7.76765 15.9475 7.56574 15.9475C7.36384 15.8465 7.16193 15.7456 6.96002 15.5436C6.96002 15.5436 6.85907 15.4427 6.85907 15.0389C6.85907 14.736 6.96002 14.3322 7.26288 13.7265L9.08005 8.98165C9.48387 8.27497 9.68577 7.77021 9.88768 7.46734C10.0896 7.16448 10.1905 7.06353 10.2915 7.06353C10.3925 7.06353 10.4934 6.96257 10.7963 6.96257C11.2001 6.96257 11.8058 6.96257 12.5125 6.96257H24.7279C25.5355 6.96257 26.0403 6.96257 26.4441 6.96257C26.747 6.96257 26.9489 7.06353 26.9489 7.06353C27.0498 7.06353 27.1508 7.16448 27.3527 7.46734C27.5546 7.77021 27.7565 8.27497 28.1603 8.8807L30.0784 13.6255C30.2803 14.2312 30.3813 14.6351 30.4823 14.9379C30.4823 15.3417 30.4823 15.4427 30.3813 15.4427C30.1794 15.6446 29.9775 15.7456 29.7756 15.8465C29.5737 15.9475 29.2708 15.9475 29.0689 15.8465C28.867 15.7456 28.6651 15.6446 28.4632 15.4427C28.3622 15.2408 28.2613 15.0389 28.2613 14.736C28.2613 14.3322 28.0594 13.9284 27.8575 13.6255C27.5546 13.3227 27.1508 13.2217 26.747 13.2217C26.3432 13.2217 25.9393 13.4236 25.6365 13.6255C25.3336 13.9284 25.2327 14.3322 25.2327 14.736C25.2327 15.0389 25.1317 15.3417 24.9298 15.5436C24.526 15.9475 23.7183 15.9475 23.3145 15.5436C23.1126 15.3417 23.0117 15.0389 23.0117 14.736C23.0117 14.3322 22.8098 13.9284 22.6079 13.6255C22.0021 13.0198 20.9926 13.0198 20.4878 13.6255C20.185 13.9284 20.084 14.3322 20.084 14.736C20.084 15.0389 19.9831 15.3417 19.7812 15.5436C19.3773 15.9475 18.5697 15.9475 18.1659 15.5436C17.964 15.3417 17.863 15.0389 17.863 14.736C17.863 14.3322 17.6611 13.9284 17.4592 13.6255C16.8535 13.0198 15.844 13.0198 15.3392 13.6255C15.0363 13.9284 14.9354 14.3322 14.9354 14.736C14.9354 15.3417 14.4306 15.9475 13.7239 15.9475C13.1182 15.9475 12.5125 15.4427 12.5125 14.736C12.5125 14.3322 12.3106 13.9284 12.1087 13.6255C11.0991 13.1208 10.0896 13.1208 9.48387 13.7265Z" fill="#FCFCFF"/>
<path d="M30.7833 30.7868H29.5718V22.9124C29.5718 22.5086 29.3699 22.1048 29.168 21.8019C28.5623 21.1962 27.5527 21.1962 27.048 21.8019C26.7451 22.1048 26.6441 22.5086 26.6441 22.9124V30.7868H10.6935V22.9124C10.6935 22.5086 10.4915 22.1048 10.2896 21.8019C9.68391 21.1962 8.67438 21.1962 8.16961 21.8019C7.86674 22.1048 7.76579 22.5086 7.76579 22.9124V30.7868H6.55435C6.15053 30.7868 5.74672 30.9887 5.44385 31.1906C5.14099 31.4935 5.04004 31.8973 5.04004 32.3011C5.04004 32.705 5.24195 33.1088 5.44385 33.4116C5.74672 33.7145 6.15053 33.8154 6.55435 33.8154H30.7833C31.1871 33.8154 31.5909 33.6135 31.8937 33.4116C32.1966 33.2097 32.2976 32.705 32.2976 32.3011C32.2976 31.8973 32.0957 31.4935 31.8937 31.1906C31.4899 30.8878 31.1871 30.7868 30.7833 30.7868Z" fill="#FCFCFF"/>
</svg>
