<svg width="38" height="38" viewBox="0 0 38 38" fill="none" xmlns="http://www.w3.org/2000/svg">
<path d="M15.1058 4.99902H22.8836C23.5024 4.99902 24.0959 5.24486 24.5335 5.68244C24.9711 6.12003 25.2169 6.71352 25.2169 7.33236C25.2169 8.77631 24.6433 10.1611 23.6223 11.1822C22.6012 12.2032 21.2164 12.7768 19.7725 12.7768H18.2169C16.7729 12.7768 15.3881 12.2032 14.3671 11.1822C13.3461 10.1611 12.7725 8.77631 12.7725 7.33236C12.7725 6.71352 13.0183 6.12003 13.4559 5.68244C13.8935 5.24486 14.487 4.99902 15.1058 4.99902Z" stroke="#FCFCFF" stroke-width="3.11111" stroke-linecap="round" stroke-linejoin="round"/>
<path d="M6.55176 26.7773V25.2218C6.55176 21.9213 7.86287 18.756 10.1967 16.4222C12.5304 14.0885 15.6957 12.7773 18.9962 12.7773C22.2967 12.7773 25.462 14.0885 27.7958 16.4222C30.1295 18.756 31.4406 21.9213 31.4406 25.2218V26.7773C31.4406 28.4276 30.7851 30.0102 29.6182 31.1771C28.4513 32.344 26.8687 32.9996 25.2184 32.9996H12.774C11.1237 32.9996 9.5411 32.344 8.3742 31.1771C7.20731 30.0102 6.55176 28.4276 6.55176 26.7773Z" stroke="#FCFCFF" stroke-width="3.11111" stroke-linecap="round" stroke-linejoin="round"/>
<path d="M21.7222 18.2216H17.8333C17.2145 18.2216 16.621 18.4674 16.1834 18.905C15.7458 19.3426 15.5 19.9361 15.5 20.5549C15.5 21.1737 15.7458 21.7672 16.1834 22.2048C16.621 22.6424 17.2145 22.8882 17.8333 22.8882H19.3889C20.0077 22.8882 20.6012 23.1341 21.0388 23.5717C21.4764 24.0092 21.7222 24.6027 21.7222 25.2216C21.7222 25.8404 21.4764 26.4339 21.0388 26.8715C20.6012 27.3091 20.0077 27.5549 19.3889 27.5549H15.5M18.6111 27.5549V29.1105M18.6111 16.666V18.2216" stroke="#FCFCFF" stroke-width="3.11111" stroke-linecap="round" stroke-linejoin="round"/>
</svg>
