<svg width="38" height="38" viewBox="0 0 38 38" fill="none" xmlns="http://www.w3.org/2000/svg">
<path d="M5 33V29.8889C5 28.2387 5.65555 26.656 6.82245 25.4891C7.98934 24.3222 9.57199 23.6667 11.2222 23.6667H17.4444C19.0947 23.6667 20.6773 24.3222 21.8442 25.4891C23.0111 26.656 23.6667 28.2387 23.6667 29.8889V33M25.2222 5.20222C26.5606 5.54491 27.7469 6.32331 28.5941 7.41471C29.4413 8.5061 29.9011 9.8484 29.9011 11.23C29.9011 12.6116 29.4413 13.9539 28.5941 15.0453C27.7469 16.1367 26.5606 16.9151 25.2222 17.2578M33 33V29.8889C32.9921 28.5156 32.5301 27.1835 31.686 26.1002C30.8419 25.0169 29.6631 24.2433 28.3333 23.9M8.11111 11.2222C8.11111 12.8725 8.76666 14.4551 9.93356 15.622C11.1005 16.7889 12.6831 17.4444 14.3333 17.4444C15.9836 17.4444 17.5662 16.7889 18.7331 15.622C19.9 14.4551 20.5556 12.8725 20.5556 11.2222C20.5556 9.57199 19.9 7.98934 18.7331 6.82245C17.5662 5.65555 15.9836 5 14.3333 5C12.6831 5 11.1005 5.65555 9.93356 6.82245C8.76666 7.98934 8.11111 9.57199 8.11111 11.2222Z" stroke="#FCFCFF" stroke-width="2.66667" stroke-linecap="round" stroke-linejoin="round"/>
</svg>
